# xmcd CD database file generated by MAGIX_Freedb v0.9beta0
# 
# Track frame offsets:
#      150
#      10377
#      28527
#      49802
#      68667
#      89247
#      115955
#      137997
#      166405
# 
# Disc length: 2367 seconds
# 
# Revision: 3 
# Processed by: cddbd v1.4PL0 Copyright (c) Steve Scherf et al.
# Submitted via: MAGIX_Freedb v0.9beta0
# 
DISCID=7d093d09
DTITLE=Mtume - Theater Of The Mind
DYEAR=1986
DGENRE=Soul
TTITLE0=Mtume - Theme For Theater Of The Mind
TTITLE1=Mtume - POP Generation
TTITLE2=Mtume - Breathless
TTITLE3=Mtume - I Don't Believe You Heard Me
TTITLE4=Mtume - Body and Soul (Take Me)
TTITLE5=Mtume - New Face Deli
TTITLE6=Mtume - I'd Rather Be With You
TTITLE7=Mtume - Deep Freeze (Rap-A-Song) Part I
TTITLE8=Mtume - Deep Freeze (Tree's Thing) Part II
EXTD=YEAR: 1986 ID3G: 42
EXTT0=
EXTT1=
EXTT2=
EXTT3=
EXTT4=
EXTT5=
EXTT6=
EXTT7=
EXTT8=
PLAYORDER=
